<?xml version="1.0" encoding="UTF-8"?>
<svg id="Layer_1" data-name="Layer 1" xmlns="http://www.w3.org/2000/svg" viewBox="0 0 24 24">
  <path d="m18.35,16.34s0,0,0,0c-.1-.37-.4-.66-.77-.75-.93-.25-1.8-.64-2.61-1.16-.31-.2-.72-.22-1.05-.06-.31.15-.59.35-.83.6-.15.15-.28.31-.4.49-.6-.44-1.16-.92-1.69-1.45-.53-.52-1.01-1.09-1.45-1.69.17-.12.34-.25.48-.4.25-.24.45-.52.6-.82.17-.33.16-.74-.04-1.07-.52-.8-.91-1.68-1.15-2.59-.09-.37-.38-.67-.75-.78-.52-.15-1.07-.16-1.59-.03-.5.12-.96.35-1.4.74-.83.98-.91,2.52-.24,4.34.58,1.56,1.7,3.23,3.15,4.69,1.44,1.45,3.11,2.57,4.68,3.15.72.28,1.47.44,2.24.46.04,0,.08,0,.12,0,.71,0,1.4-.24,1.96-.68.02-.02.06-.06.08-.08.32-.38.56-.83.67-1.31.13-.52.12-1.07-.02-1.58Z"/>
  <path d="m12.1,4.7c0-.39.32-.7.71-.7.02,0,.04,0,.06,0,4.32.34,7.75,3.77,8.09,8.09.04.38-.24.72-.62.76-.03,0-.06,0-.08,0h0c-.36,0-.66-.29-.69-.65-.29-3.63-3.17-6.52-6.8-6.81-.37-.02-.65-.33-.66-.69Z"/>
  <path d="m12.12,7.22c0-.38.3-.7.69-.7.03,0,.06,0,.09,0,2.91.34,5.2,2.63,5.54,5.54.04.38-.23.73-.61.77-.03,0-.06,0-.09,0h0c-.35,0-.64-.26-.68-.61-.26-2.27-2.06-4.07-4.33-4.32-.34-.04-.6-.34-.6-.68h0Z"/>
  <path d="m12.99,9.1c1.03.23,1.92.88,2.45,1.79.2.34.34.71.42,1.09.07.37-.17.73-.54.8-.04,0-.09.01-.13.01h-.03c-.33,0-.61-.24-.68-.56-.21-.88-.9-1.57-1.78-1.77-.32-.07-.55-.35-.56-.67h0c0-.4.31-.71.69-.71.05,0,.1,0,.15.02Z"/>
</svg>