<?xml version="1.0" encoding="UTF-8"?>
<svg id="Layer_1" data-name="Layer 1" xmlns="http://www.w3.org/2000/svg" viewBox="0 0 24 24">
  <path d="m18.1,9.93l-5.64-5.54c-.53-.52-1.39-.52-1.92,0l-5.65,5.54c-.4.4-.52.97-.31,1.5.22.52.7.85,1.27.85h11.29c.57,0,1.05-.33,1.27-.85.21-.52.1-1.1-.31-1.5Z"/>
  <path d="m17.14,13.19H5.84c-.09,0-.18-.01-.27-.02v4.57c0,1.26,1.02,2.28,2.28,2.28h7.28c1.25,0,2.28-1.02,2.28-2.28v-4.57c-.09.01-.18.02-.27.02h0Zm-5.19,4.63c0,.25-.2.45-.45.45s-.45-.2-.45-.45v-1.67c0-.25.2-.45.45-.45s.45.2.45.45v1.67Z"/>
</svg>