<?xml version="1.0" encoding="UTF-8"?>
<svg id="Layer_1" data-name="Layer 1" xmlns="http://www.w3.org/2000/svg" viewBox="0 0 24 24">
  <path d="m18.58,9.87l-5.55-5.45c-.57-.56-1.49-.56-2.06,0l-5.55,5.45c-.44.43-.56,1.04-.33,1.61.17.43.52.73.97.85v5.31c0,1.3,1.06,2.36,2.36,2.36h7.16c1.3,0,2.36-1.06,2.36-2.36v-5.31c.44-.12.8-.42.97-.85.23-.56.11-1.18-.33-1.61Zm-1.78,7.77c0,.67-.55,1.22-1.22,1.22h-7.17c-.67,0-1.22-.55-1.22-1.22v-5.25h9.6v5.25Zm1.06-6.59c-.02.06-.1.2-.3.2H6.45c-.2,0-.28-.14-.3-.2-.03-.06-.07-.22.07-.36l5.56-5.45c.06-.06.14-.09.23-.09s.17.03.23.09l5.55,5.45c.14.14.1.3.07.36Z"/>
  <path d="m12,18.28c.31,0,.57-.26.57-.57v-1.64c0-.32-.26-.57-.57-.57s-.57.26-.57.57v1.64c0,.32.26.57.57.57Z"/>
</svg>