<?xml version="1.0" encoding="UTF-8"?>
<svg id="Layer_1" data-name="Layer 1" xmlns="http://www.w3.org/2000/svg" viewBox="0 0 24 24">
  <path d="m12,4c-4.42,0-8,3.58-8,8s3.58,8,8,8,8-3.58,8-8-3.58-8-8-8Zm5.51,10.83c-.37.28-.8.42-1.26.42-.66,0-1.27-.3-1.67-.83-.04-.06-.11-.09-.18-.1h0c-.08,0-.14.02-.19.07-.6.56-1.39.86-2.21.86-.73,0-1.44-.25-2.01-.69-.68-.54-1.12-1.31-1.22-2.17-.11-.86.13-1.72.67-2.4.62-.79,1.56-1.25,2.57-1.25.73,0,1.43.24,2.01.69.04.04.1.05.16.05.06,0,.12-.02.17-.07.1-.09.23-.14.37-.14.15,0,.29.06.39.16.1.11.16.24.16.39v2.17s0,.1,0,.1v1.06c0,.43.28.81.69.94.1.03.2.05.3.05.43,0,.81-.28.94-.69.18-.62.24-1.26.19-1.91-.07-.86-.35-1.69-.81-2.42-.99-1.58-2.7-2.52-4.57-2.52-1.01,0-2,.29-2.86.83-2.52,1.58-3.28,4.91-1.7,7.42.99,1.58,2.7,2.52,4.57,2.52,1.01,0,2-.29,2.86-.82.11-.07.21-.1.32-.1.2,0,.38.1.48.27.08.13.1.28.06.42-.04.14-.13.27-.26.34-1.04.66-2.24,1-3.46,1h-.01c-.3,0-.6-.02-.9-.06-3.03-.43-5.32-2.85-5.57-5.9-.3-3.57,2.37-6.72,5.94-7.02.18-.01.37-.02.55-.02,3.35,0,6.19,2.62,6.47,5.96.07.78-.01,1.55-.23,2.3-.13.43-.39.8-.74,1.07Z"/>
  <path d="m12,9.86h0c-1.18,0-2.14.97-2.14,2.15,0,1.18.96,2.14,2.14,2.14,1.17,0,2.11-.92,2.14-2.08v-.12c-.03-1.17-.97-2.09-2.14-2.09Z"/>
</svg>