<?xml version="1.0" encoding="UTF-8"?>
<svg id="Layer_1" data-name="Layer 1" xmlns="http://www.w3.org/2000/svg" viewBox="0 0 24 24">
  <path d="m9.2,12.8h-5.2v7.2h7.2v-5.2c0-1.1-.9-2-2-2Zm-4.14,1.06h4.14c.52,0,.94.42.94.94v4.14h-5.08v-5.08Z"/>
  <path d="m12.8,4v5.2c0,1.1.9,2,2,2h5.2v-7.2h-7.2Zm6.14,6.14h-4.14c-.52,0-.94-.42-.94-.94v-4.14h5.08v5.08Z"/>
  <path d="m4,11.2h5.2c1.1,0,2-.9,2-2v-5.2h-7.2v7.2Zm1.06-6.14h5.08v4.14c0,.52-.42.94-.94.94h-4.14v-5.08Z"/>
  <path d="m12.8,14.8v5.2h7.2v-7.2h-5.2c-1.1,0-2,.9-2,2Zm6.14,4.14h-5.08v-4.14c0-.52.42-.94.94-.94h4.14v5.08Z"/>
</svg>