<?xml version="1.0" encoding="UTF-8"?>
<svg id="Layer_1" data-name="Layer 1" xmlns="http://www.w3.org/2000/svg" viewBox="0 0 24 24">
  <path d="m17.58,12.87H6.68c-.26,0-.47.21-.47.47s.21.47.47.47h10.9c.26,0,.47-.21.47-.47s-.21-.47-.47-.47Z"/>
  <path d="m17.58,10.45H6.68c-.26,0-.47.21-.47.47s.21.47.47.47h10.9c.26,0,.47-.21.47-.47s-.21-.47-.47-.47Z"/>
  <path d="m17.58,8.04H6.68c-.26,0-.47.21-.47.47s.21.47.47.47h10.9c.26,0,.47-.21.47-.47s-.21-.47-.47-.47Z"/>
  <path d="m18.41,5.51H5.63s-.04,0-.04,0c-.87,0-1.56.68-1.59,1.55v7.75c.03.85.74,1.54,1.59,1.54h.72s.03,0,.03,0c.34,0,.63.27.65.6-.01.58.33,1.11.91,1.38.24.11.5.17.76.17.39,0,.75-.13,1.02-.37l2-1.62c.13-.1.3-.16.47-.16h6.27c.87,0,1.56-.68,1.59-1.55v-7.75c-.03-.87-.73-1.54-1.59-1.54Zm.65,1.55v7.73c-.02.34-.31.61-.65.61h-6.27c-.38,0-.76.13-1.05.37l-2,1.62c-.23.18-.53.22-.79.09-.23-.11-.36-.31-.37-.54-.03-.85-.74-1.54-1.59-1.54h-.72s-.03,0-.03,0c-.35,0-.63-.27-.65-.61v-7.73c.02-.35.3-.62.65-.62h12.78s.03,0,.03,0c.35,0,.63.27.65.61Z"/>
</svg>