<?xml version="1.0" encoding="UTF-8"?>
<svg id="Layer_1" data-name="Layer 1" xmlns="http://www.w3.org/2000/svg" viewBox="0 0 24 24">
  <g>
    <path d="m4.68,19.32v-5.84h4.52c.73,0,1.32.59,1.32,1.32v4.52h-5.84Z"/>
    <path d="m9.2,14.16c.35,0,.64.29.64.64v3.84h-4.48v-4.48h3.84m0-1.36h-5.2v7.2h7.2v-5.2c0-1.1-.9-2-2-2h0Z"/>
  </g>
  <g>
    <path d="m14.8,10.52c-.73,0-1.32-.59-1.32-1.32v-4.52h5.84v5.84h-4.52Z"/>
    <path d="m18.64,5.36v4.48h-3.84c-.35,0-.64-.29-.64-.64v-3.84h4.48m1.36-1.36h-7.2v5.2c0,1.1.9,2,2,2h5.2v-7.2h0Z"/>
  </g>
  <g>
    <path d="m4.68,10.52v-5.84h5.84v4.52c0,.73-.59,1.32-1.32,1.32h-4.52Z"/>
    <path d="m9.84,5.36v3.84c0,.35-.29.64-.64.64h-3.84v-4.48h4.48m1.36-1.36h-7.2v7.2h5.2c1.1,0,2-.9,2-2v-5.2h0Z"/>
  </g>
  <g>
    <path d="m13.48,19.32v-4.52c0-.73.59-1.32,1.32-1.32h4.52v5.84h-5.84Z"/>
    <path d="m18.64,14.16v4.48h-4.48v-3.84c0-.35.29-.64.64-.64h3.84m1.36-1.36h-5.2c-1.1,0-2,.9-2,2v5.2h7.2v-7.2h0Z"/>
  </g>
</svg>