<?xml version="1.0" encoding="UTF-8"?>
<svg id="Layer_1" data-name="Layer 1" xmlns="http://www.w3.org/2000/svg" viewBox="0 0 24 24">
  <path d="m19,5.65H5c-.53-.02-.97.38-1,.91v8.51c.03.53.47.93,1,.91h.74c.83-.02,1.52.63,1.55,1.45.02.77.98,1.21,1.66.68l2.2-1.78c.29-.23.64-.35,1.01-.35h6.85c.53.02.97-.38,1-.91V6.56c-.03-.53-.47-.93-1-.91Zm-.87,8.09H6.15c-.15,0-.28-.12-.28-.28s.12-.28.28-.28h11.99c.15,0,.28.12.28.28s-.12.28-.28.28Zm0-2.65H6.15c-.15,0-.28-.12-.28-.28s.12-.28.28-.28h11.99c.15,0,.28.12.28.28,0,.15-.12.28-.28.28Zm0-2.65H6.15c-.15,0-.28-.12-.28-.28s.12-.28.28-.28h11.99c.15,0,.27.13.27.28,0,.15-.12.26-.27.27h0Z"/>
</svg>