<?xml version="1.0" encoding="UTF-8"?>
<svg id="Layer_1" data-name="Layer 1" xmlns="http://www.w3.org/2000/svg" viewBox="0 0 24 24">
  <path d="m11.99,19.7c-.35,0-.71-.02-1.06-.07-3.59-.5-6.3-3.38-6.6-6.99-.35-4.23,2.81-7.96,7.04-8.31.22-.02.43-.03.65-.03,3.97,0,7.34,3.1,7.67,7.06.08.92-.01,1.84-.27,2.73-.15.51-.46.95-.88,1.27-.43.33-.95.5-1.49.5-.79,0-1.51-.36-1.98-.98-.05-.07-.13-.11-.21-.12h0c-.1,0-.17.03-.22.08-.71.66-1.64,1.02-2.62,1.02-.86,0-1.71-.29-2.38-.82-.81-.64-1.33-1.55-1.45-2.57-.12-1.02.16-2.03.79-2.85.74-.94,1.84-1.48,3.04-1.48.87,0,1.69.28,2.38.82.05.04.12.06.18.06.07,0,.14-.03.2-.08.12-.11.28-.17.44-.17.18,0,.34.07.47.19.12.12.19.29.19.46v2.57s0,.11,0,.11v1.26c0,.51.33.96.81,1.11.11.04.23.05.35.05.51,0,.96-.33,1.11-.81.21-.74.29-1.5.23-2.26-.08-1.01-.42-2-.96-2.86-1.17-1.87-3.2-2.99-5.41-2.99-1.2,0-2.37.34-3.39.98-2.98,1.87-3.88,5.82-2.01,8.8,1.17,1.87,3.2,2.99,5.41,2.99,1.2,0,2.37-.34,3.39-.98.13-.08.25-.12.38-.12.24,0,.45.12.57.32.09.15.12.33.07.5-.04.17-.15.31-.3.41-1.23.78-2.65,1.19-4.11,1.19h-.02Zm0-10.24c-1.4,0-2.54,1.15-2.54,2.55,0,1.4,1.14,2.53,2.54,2.53,1.38,0,2.5-1.09,2.54-2.47v-.14c-.04-1.39-1.16-2.48-2.54-2.48h0Z"/>
</svg>