<?xml version="1.0" encoding="UTF-8"?>
<svg id="Layer_1" data-name="Layer 1" xmlns="http://www.w3.org/2000/svg" viewBox="0 0 24 24">
  <path d="m15.65,20s-.08,0-.12,0c-.77-.02-1.52-.17-2.24-.46-1.57-.58-3.23-1.7-4.68-3.15-1.45-1.46-2.57-3.13-3.15-4.69-.68-1.82-.59-3.36.24-4.34.44-.39.9-.62,1.4-.74.52-.13,1.07-.11,1.59.03.37.11.66.41.75.78.24.92.63,1.79,1.15,2.59.2.33.22.74.04,1.07-.15.3-.35.58-.6.82-.15.15-.31.28-.48.4.44.6.93,1.17,1.45,1.69.53.53,1.09,1.02,1.69,1.45.12-.17.25-.34.4-.49.24-.24.52-.44.83-.6.33-.17.74-.15,1.05.06.81.52,1.68.91,2.61,1.16.37.09.67.38.77.75,0,0,0,0,0,0,.14.51.14,1.06.02,1.58-.12.48-.35.94-.67,1.31-.02.02-.06.06-.08.08-.56.44-1.25.68-1.96.68ZM7.83,7.49c-.17,0-.35.02-.52.06-.35.08-.67.25-.94.48-.55.65-.57,1.86-.02,3.34.53,1.44,1.57,2.98,2.93,4.35,1.35,1.36,2.89,2.39,4.34,2.93.62.25,1.27.38,1.93.4.55.02,1.05-.15,1.47-.47.17-.21.34-.53.42-.87.09-.37.09-.75,0-1.1-.01-.04-.04-.07-.09-.08-1.03-.27-2-.71-2.89-1.28-.03-.02-.07-.02-.11,0-.22.11-.41.25-.58.41-.2.2-.36.44-.47.7-.06.13-.17.23-.3.27-.14.04-.28.02-.4-.06-.81-.55-1.57-1.18-2.26-1.87-.69-.69-1.32-1.45-1.87-2.26-.08-.12-.1-.27-.06-.4.04-.14.14-.25.27-.3.26-.11.5-.27.7-.47.17-.17.31-.36.42-.57.02-.05.02-.09,0-.13-.57-.87-1-1.84-1.27-2.87-.01-.05-.04-.09-.09-.1-.19-.05-.39-.08-.59-.08Z"/>
  <g>
    <path d="m20.25,12.5c-.27,0-.49-.21-.51-.49-.3-3.74-3.23-6.67-6.97-6.97-.28-.02-.49-.24-.49-.52,0-.29.24-.52.52-.52,4.3.34,7.63,3.67,7.97,7.93.03.28-.18.54-.46.56h-.05s-.01,0-.01,0Z"/>
    <path d="m17.74,12.47c-.26,0-.47-.19-.5-.45-.27-2.37-2.12-4.21-4.49-4.48-.24-.03-.43-.23-.44-.47,0-.01,0-.03,0-.04,0-.28.23-.52.51-.52,2.9.33,5.11,2.54,5.44,5.38.03.28-.17.54-.45.57h-.07Z"/>
    <path d="m15.17,12.44c-.24,0-.46-.18-.5-.41-.23-.96-.96-1.69-1.91-1.91-.25-.05-.42-.26-.42-.5,0-.15.05-.28.15-.37.1-.1.22-.15.36-.15h0s.08,0,.11.01c.98.22,1.83.84,2.34,1.7.19.32.33.67.4,1.04.05.27-.12.54-.4.59h-.1s-.03,0-.03,0Z"/>
  </g>
</svg>