<?xml version="1.0" encoding="utf-8"?>
<!-- Generator: Adobe Illustrator 27.1.0, SVG Export Plug-In . SVG Version: 6.00 Build 0)  -->
<svg version="1.1" id="Layer_1" xmlns="http://www.w3.org/2000/svg" xmlns:xlink="http://www.w3.org/1999/xlink" x="0px" y="0px"
	 viewBox="0 0 40 40" style="enable-background:new 0 0 40 40;" xml:space="preserve">
<path d="M35,10.75H4c-1.1,0-2-0.9-2-2V5c0-1.1,0.9-2,2-2h31c1.1,0,2,0.9,2,2v3.75C37,9.85,36.1,10.75,35,10.75z"/>
<path d="M20.49,22.75H3.51C2.68,22.75,2,22.07,2,21.24v-4.73C2,15.68,2.68,15,3.51,15h16.98c0.83,0,1.51,0.68,1.51,1.51v4.73
	C22,22.07,21.32,22.75,20.49,22.75z"/>
<path d="M35.93,22.75h-7.86c-0.59,0-1.07-0.48-1.07-1.07v-5.61c0-0.59,0.48-1.07,1.07-1.07h7.86c0.59,0,1.07,0.48,1.07,1.07v5.61
	C37,22.27,36.52,22.75,35.93,22.75z"/>
<path d="M35,34.75H4c-1.1,0-2-0.9-2-2V29c0-1.1,0.9-2,2-2h31c1.1,0,2,0.9,2,2v3.75C37,33.85,36.1,34.75,35,34.75z"/>
</svg>
