<?xml version="1.0" encoding="utf-8"?>
<!-- Generator: Adobe Illustrator 27.1.0, SVG Export Plug-In . SVG Version: 6.00 Build 0)  -->
<svg version="1.1" id="Layer_1" xmlns="http://www.w3.org/2000/svg" xmlns:xlink="http://www.w3.org/1999/xlink" x="0px" y="0px"
	 viewBox="0 0 40 40" style="enable-background:new 0 0 40 40;" xml:space="preserve">
<path d="M36,10.75H5c-1.1,0-2-0.9-2-2V5c0-1.1,0.9-2,2-2h31c1.1,0,2,0.9,2,2v3.75C38,9.85,37.1,10.75,36,10.75z"/>
<path d="M32,28.51c-0.01,0.06-0.02,0.22-0.14,0.34c-0.11,0.11-0.25,0.13-0.34,0.14H9.49C9.22,29,9,28.78,9,28.51v-7.03
	C9,21.22,9.22,21,9.49,21h21.9c0.34,0,0.61,0.28,0.61,0.62C32.03,25.44,32.03,28.2,32,28.51z M36,15H5c-1.1,0-2,0.9-2,2v16
	c0,1.1,0.9,2,2,2h31c1.1,0,2-0.9,2-2V17C38,15.9,37.1,15,36,15L36,15z"/>
</svg>
